<svg width="22" height="26" viewBox="0 0 22 26" fill="none" xmlns="http://www.w3.org/2000/svg">
    <g clip-path="url(#clip0_556_15343)">
        <path d="M18.6628 2.02384C17.4653 0.656518 15.3008 0.0703125 12.5316 0.0703125H4.49472C4.22072 0.0702702 3.9557 0.168175 3.74733 0.346416C3.53896 0.524657 3.40091 0.771536 3.35802 1.04264L0.0116137 22.3047C-0.054902 22.724 0.269168 23.1036 0.693356 23.1036H5.65504L6.90114 15.1856L6.86247 15.4336C6.95124 14.8739 7.42905 14.4611 7.99486 14.4611H10.3526C14.9845 14.4611 18.6113 12.5763 19.6708 7.12415C19.7022 6.96289 19.7295 6.80595 19.753 6.65262C19.6193 6.58168 19.6193 6.58168 19.753 6.65262C20.0685 4.63744 19.7509 3.26573 18.6628 2.02384Z" fill="#000740"/>
        <path d="M8.79967 5.92668C8.93528 5.86188 9.08366 5.82834 9.23391 5.82854H15.5347C16.2808 5.82854 16.9767 5.87718 17.6126 5.97972C17.7906 6.00816 17.9676 6.0421 18.1435 6.08148C18.3927 6.13659 18.6391 6.20402 18.8817 6.28354C19.1943 6.38814 19.4855 6.50996 19.7531 6.65262C20.0685 4.63667 19.7509 3.26573 18.6628 2.02384C17.4647 0.656518 15.3008 0.0703125 12.5316 0.0703125H4.49403C3.92813 0.0703125 3.44671 0.483041 3.35802 1.04264L0.0116141 22.3039C-0.0549015 22.7239 0.269169 23.103 0.692669 23.103H5.65504L8.2403 6.67913C8.26574 6.51771 8.32994 6.36489 8.42738 6.23382C8.52482 6.10275 8.65258 5.99735 8.79967 5.92668Z" fill="#000740"/>
        <path d="M19.6707 7.12412C18.6112 12.5755 14.9845 14.461 10.3525 14.461H7.99408C7.42826 14.461 6.95037 14.8738 6.86245 15.4335L5.31223 25.2787C5.2543 25.6456 5.53755 25.9781 5.90812 25.9781H10.0907C10.3303 25.978 10.562 25.8923 10.7441 25.7364C10.9263 25.5805 11.0469 25.3646 11.0844 25.1275L11.1251 24.914L11.9134 19.9089L11.9642 19.6323C12.0017 19.3952 12.1223 19.1793 12.3044 19.0234C12.4866 18.8675 12.7183 18.7818 12.9578 18.7817H13.5838C17.6355 18.7817 20.808 17.1327 21.7351 12.3635C22.1221 10.3704 21.9219 8.70642 20.8982 7.53762C20.5877 7.18361 20.2021 6.89124 19.7529 6.65259C19.7286 6.80669 19.7022 6.96287 19.6707 7.12412Z" fill="#2790C3"/>
        <path d="M18.6444 6.20968C18.4792 6.16136 18.3124 6.11857 18.1444 6.0814C17.9684 6.04265 17.7914 6.00894 17.6135 5.98032C16.9769 5.8771 16.2815 5.82837 15.5347 5.82837H9.23473C9.08439 5.82812 8.93593 5.86194 8.80048 5.92729C8.6532 5.9977 8.52527 6.10303 8.42779 6.23414C8.3303 6.36526 8.2662 6.51821 8.24103 6.67974L6.90195 15.1855L6.86328 15.4335C6.95137 14.8738 7.42918 14.461 7.99508 14.461H10.3535C14.9854 14.461 18.6121 12.5762 19.6716 7.12407C19.7031 6.96281 19.7296 6.80656 19.7539 6.65254C19.4857 6.51077 19.1952 6.38797 18.8825 6.28415C18.8036 6.25793 18.7242 6.23311 18.6445 6.20968" fill="#000740"/>
    </g>
    <defs>
        <clipPath id="clip0_556_15343">
            <rect width="22" height="26" fill="white"/>
        </clipPath>
    </defs>
</svg>
